<mxfile host="app.diagrams.net" agent="Mozilla/5.0 (Windows NT 10.0; Win64; x64) AppleWebKit/537.36 (KHTML, like Gecko) Chrome/141.0.0.0 Safari/537.36 Edg/141.0.0.0" version="28.2.8">
  <diagram name="第 1 页" id="A-uIN5zeRd8DBHm9XQ09">
    <mxGraphModel dx="2018" dy="1116" grid="1" gridSize="10" guides="1" tooltips="1" connect="1" arrows="1" fold="1" page="1" pageScale="1" pageWidth="827" pageHeight="1169" math="0" shadow="0">
      <root>
        <mxCell id="0" />
        <mxCell id="1" parent="0" />
        <mxCell id="woAPnx7vii8LsmM3cM5X-2" value="" style="shape=cube;whiteSpace=wrap;html=1;boundedLbl=1;backgroundOutline=1;darkOpacity=0.05;darkOpacity2=0.1;" parent="1" vertex="1">
          <mxGeometry x="130" y="80" width="60" height="80" as="geometry" />
        </mxCell>
        <mxCell id="woAPnx7vii8LsmM3cM5X-6" value="" style="shape=cube;whiteSpace=wrap;html=1;boundedLbl=1;backgroundOutline=1;darkOpacity=0.05;darkOpacity2=0.1;" parent="1" vertex="1">
          <mxGeometry x="500" y="80" width="60" height="80" as="geometry" />
        </mxCell>
        <mxCell id="woAPnx7vii8LsmM3cM5X-5" value="" style="shape=cube;whiteSpace=wrap;html=1;boundedLbl=1;backgroundOutline=1;darkOpacity=0.05;darkOpacity2=0.1;" parent="1" vertex="1">
          <mxGeometry x="460" y="80" width="60" height="80" as="geometry" />
        </mxCell>
        <mxCell id="woAPnx7vii8LsmM3cM5X-4" value="" style="shape=cube;whiteSpace=wrap;html=1;boundedLbl=1;backgroundOutline=1;darkOpacity=0.05;darkOpacity2=0.1;" parent="1" vertex="1">
          <mxGeometry x="420" y="80" width="60" height="80" as="geometry" />
        </mxCell>
        <mxCell id="woAPnx7vii8LsmM3cM5X-7" value="Frontend：Data Import" style="text;html=1;whiteSpace=wrap;strokeColor=none;fillColor=none;align=center;verticalAlign=middle;rounded=0;" parent="1" vertex="1">
          <mxGeometry x="180" y="100" width="230" height="30" as="geometry" />
        </mxCell>
        <mxCell id="woAPnx7vii8LsmM3cM5X-8" value="" style="endArrow=classic;html=1;rounded=0;" parent="1" edge="1">
          <mxGeometry width="50" height="50" relative="1" as="geometry">
            <mxPoint x="200" y="130" as="sourcePoint" />
            <mxPoint x="410" y="130" as="targetPoint" />
          </mxGeometry>
        </mxCell>
        <mxCell id="woAPnx7vii8LsmM3cM5X-9" value="Multiple sets of data" style="text;html=1;whiteSpace=wrap;strokeColor=none;fillColor=none;align=center;verticalAlign=middle;rounded=0;" parent="1" vertex="1">
          <mxGeometry x="410" y="40" width="150" height="30" as="geometry" />
        </mxCell>
        <mxCell id="woAPnx7vii8LsmM3cM5X-10" value="" style="endArrow=classic;html=1;rounded=0;" parent="1" edge="1">
          <mxGeometry width="50" height="50" relative="1" as="geometry">
            <mxPoint x="500" y="170" as="sourcePoint" />
            <mxPoint x="500" y="200" as="targetPoint" />
          </mxGeometry>
        </mxCell>
        <mxCell id="woAPnx7vii8LsmM3cM5X-12" value="Backend Master Control: DIstribute data to different units" style="rounded=1;whiteSpace=wrap;html=1;" parent="1" vertex="1">
          <mxGeometry x="295" y="210" width="410" height="60" as="geometry" />
        </mxCell>
        <mxCell id="woAPnx7vii8LsmM3cM5X-13" value="Computing unit1" style="rounded=1;whiteSpace=wrap;html=1;" parent="1" vertex="1">
          <mxGeometry x="290" y="320" width="90" height="40" as="geometry" />
        </mxCell>
        <mxCell id="woAPnx7vii8LsmM3cM5X-16" value="Computing unit2" style="rounded=1;whiteSpace=wrap;html=1;" parent="1" vertex="1">
          <mxGeometry x="455" y="320" width="90" height="40" as="geometry" />
        </mxCell>
        <mxCell id="woAPnx7vii8LsmM3cM5X-17" value="Computing unit3" style="rounded=1;whiteSpace=wrap;html=1;" parent="1" vertex="1">
          <mxGeometry x="620" y="320" width="90" height="40" as="geometry" />
        </mxCell>
        <mxCell id="woAPnx7vii8LsmM3cM5X-18" value="" style="endArrow=classic;html=1;rounded=0;" parent="1" edge="1">
          <mxGeometry width="50" height="50" relative="1" as="geometry">
            <mxPoint x="500" y="280" as="sourcePoint" />
            <mxPoint x="330" y="310" as="targetPoint" />
          </mxGeometry>
        </mxCell>
        <mxCell id="woAPnx7vii8LsmM3cM5X-19" value="" style="endArrow=classic;html=1;rounded=0;" parent="1" edge="1">
          <mxGeometry width="50" height="50" relative="1" as="geometry">
            <mxPoint x="500" y="280" as="sourcePoint" />
            <mxPoint x="500" y="310" as="targetPoint" />
          </mxGeometry>
        </mxCell>
        <mxCell id="woAPnx7vii8LsmM3cM5X-20" value="" style="endArrow=classic;html=1;rounded=0;" parent="1" edge="1">
          <mxGeometry width="50" height="50" relative="1" as="geometry">
            <mxPoint x="500" y="280" as="sourcePoint" />
            <mxPoint x="665" y="310" as="targetPoint" />
          </mxGeometry>
        </mxCell>
        <mxCell id="woAPnx7vii8LsmM3cM5X-21" value="&lt;b&gt;&lt;font style=&quot;font-size: 21px;&quot;&gt;...&lt;/font&gt;&lt;/b&gt;" style="text;html=1;whiteSpace=wrap;strokeColor=none;fillColor=none;align=center;verticalAlign=middle;rounded=0;" parent="1" vertex="1">
          <mxGeometry x="570" y="110" width="50" height="30" as="geometry" />
        </mxCell>
        <mxCell id="woAPnx7vii8LsmM3cM5X-22" value="&lt;b&gt;&lt;font style=&quot;font-size: 21px;&quot;&gt;...&lt;/font&gt;&lt;/b&gt;" style="text;html=1;whiteSpace=wrap;strokeColor=none;fillColor=none;align=center;verticalAlign=middle;rounded=0;" parent="1" vertex="1">
          <mxGeometry x="720" y="320" width="50" height="30" as="geometry" />
        </mxCell>
        <mxCell id="woAPnx7vii8LsmM3cM5X-23" value="A" style="text;html=1;whiteSpace=wrap;strokeColor=none;fillColor=none;align=center;verticalAlign=middle;rounded=0;" parent="1" vertex="1">
          <mxGeometry x="430" y="120" width="60" height="30" as="geometry" />
        </mxCell>
        <mxCell id="woAPnx7vii8LsmM3cM5X-24" value="B" style="text;html=1;whiteSpace=wrap;strokeColor=none;fillColor=none;align=center;verticalAlign=middle;rounded=0;" parent="1" vertex="1">
          <mxGeometry x="470" y="120" width="60" height="30" as="geometry" />
        </mxCell>
        <mxCell id="woAPnx7vii8LsmM3cM5X-25" value="C" style="text;html=1;whiteSpace=wrap;strokeColor=none;fillColor=none;align=center;verticalAlign=middle;rounded=0;" parent="1" vertex="1">
          <mxGeometry x="510" y="120" width="60" height="30" as="geometry" />
        </mxCell>
        <mxCell id="woAPnx7vii8LsmM3cM5X-26" value="A" style="text;html=1;whiteSpace=wrap;strokeColor=none;fillColor=none;align=center;verticalAlign=middle;rounded=0;" parent="1" vertex="1">
          <mxGeometry x="360" y="270" width="60" height="30" as="geometry" />
        </mxCell>
        <mxCell id="woAPnx7vii8LsmM3cM5X-27" value="B" style="text;html=1;whiteSpace=wrap;strokeColor=none;fillColor=none;align=center;verticalAlign=middle;rounded=0;" parent="1" vertex="1">
          <mxGeometry x="460" y="280" width="60" height="30" as="geometry" />
        </mxCell>
        <mxCell id="woAPnx7vii8LsmM3cM5X-28" value="C" style="text;html=1;whiteSpace=wrap;strokeColor=none;fillColor=none;align=center;verticalAlign=middle;rounded=0;" parent="1" vertex="1">
          <mxGeometry x="580" y="270" width="60" height="30" as="geometry" />
        </mxCell>
        <mxCell id="woAPnx7vii8LsmM3cM5X-30" value="CPU Core 1" style="rounded=1;whiteSpace=wrap;html=1;" parent="1" vertex="1">
          <mxGeometry x="210" y="440" width="90" height="40" as="geometry" />
        </mxCell>
        <mxCell id="woAPnx7vii8LsmM3cM5X-31" value="CPU Core 2" style="rounded=1;whiteSpace=wrap;html=1;" parent="1" vertex="1">
          <mxGeometry x="370" y="440" width="90" height="40" as="geometry" />
        </mxCell>
        <mxCell id="woAPnx7vii8LsmM3cM5X-32" value="&lt;b&gt;&lt;font style=&quot;font-size: 21px;&quot;&gt;...&lt;/font&gt;&lt;/b&gt;" style="text;html=1;whiteSpace=wrap;strokeColor=none;fillColor=none;align=center;verticalAlign=middle;rounded=0;" parent="1" vertex="1">
          <mxGeometry x="470" y="440" width="50" height="30" as="geometry" />
        </mxCell>
        <mxCell id="woAPnx7vii8LsmM3cM5X-33" value="" style="endArrow=classic;html=1;rounded=0;" parent="1" edge="1">
          <mxGeometry width="50" height="50" relative="1" as="geometry">
            <mxPoint x="330" y="360" as="sourcePoint" />
            <mxPoint x="260" y="430" as="targetPoint" />
          </mxGeometry>
        </mxCell>
        <mxCell id="woAPnx7vii8LsmM3cM5X-35" value="" style="endArrow=classic;html=1;rounded=0;exitX=0.548;exitY=1.028;exitDx=0;exitDy=0;exitPerimeter=0;" parent="1" source="woAPnx7vii8LsmM3cM5X-13" edge="1">
          <mxGeometry width="50" height="50" relative="1" as="geometry">
            <mxPoint x="340" y="420" as="sourcePoint" />
            <mxPoint x="410" y="430" as="targetPoint" />
          </mxGeometry>
        </mxCell>
        <mxCell id="woAPnx7vii8LsmM3cM5X-36" value="Data A1" style="text;html=1;whiteSpace=wrap;strokeColor=none;fillColor=none;align=center;verticalAlign=middle;rounded=0;" parent="1" vertex="1">
          <mxGeometry x="220" y="370" width="60" height="30" as="geometry" />
        </mxCell>
        <mxCell id="woAPnx7vii8LsmM3cM5X-37" value="Data A2" style="text;html=1;whiteSpace=wrap;strokeColor=none;fillColor=none;align=center;verticalAlign=middle;rounded=0;" parent="1" vertex="1">
          <mxGeometry x="385" y="370" width="60" height="30" as="geometry" />
        </mxCell>
        <mxCell id="woAPnx7vii8LsmM3cM5X-40" value="" style="endArrow=none;html=1;rounded=0;" parent="1" edge="1">
          <mxGeometry width="50" height="50" relative="1" as="geometry">
            <mxPoint x="260" y="490" as="sourcePoint" />
            <mxPoint x="410" y="490" as="targetPoint" />
            <Array as="points">
              <mxPoint x="260" y="520" />
              <mxPoint x="340" y="520" />
              <mxPoint x="410" y="520" />
            </Array>
          </mxGeometry>
        </mxCell>
        <mxCell id="woAPnx7vii8LsmM3cM5X-41" value="" style="endArrow=none;html=1;rounded=0;" parent="1" edge="1">
          <mxGeometry width="50" height="50" relative="1" as="geometry">
            <mxPoint x="410" y="520" as="sourcePoint" />
            <mxPoint x="550" y="520" as="targetPoint" />
          </mxGeometry>
        </mxCell>
        <mxCell id="woAPnx7vii8LsmM3cM5X-44" value="" style="endArrow=classic;html=1;rounded=0;entryX=0;entryY=0.5;entryDx=0;entryDy=0;" parent="1" target="woAPnx7vii8LsmM3cM5X-13" edge="1">
          <mxGeometry width="50" height="50" relative="1" as="geometry">
            <mxPoint x="260" y="520" as="sourcePoint" />
            <mxPoint x="170" y="340" as="targetPoint" />
            <Array as="points">
              <mxPoint x="170" y="520" />
              <mxPoint x="170" y="340" />
            </Array>
          </mxGeometry>
        </mxCell>
        <mxCell id="woAPnx7vii8LsmM3cM5X-45" value="Return Result" style="text;html=1;whiteSpace=wrap;strokeColor=none;fillColor=none;align=center;verticalAlign=middle;rounded=0;" parent="1" vertex="1">
          <mxGeometry x="170" y="310" width="100" height="30" as="geometry" />
        </mxCell>
      </root>
    </mxGraphModel>
  </diagram>
</mxfile>
